<?xml version="1.0" encoding="utf-8"?>
<!-- Generator: Adobe Illustrator 26.0.1, SVG Export Plug-In . SVG Version: 6.00 Build 0)  -->
<svg version="1.1" id="Layer_1_1_" xmlns="http://www.w3.org/2000/svg" xmlns:xlink="http://www.w3.org/1999/xlink" x="0px" y="0px"
	 viewBox="0 0 785.38 218.16" style="enable-background:new 0 0 785.38 218.16;" xml:space="preserve">
<style type="text/css">
	.st0{fill:#121212;}
	.st1{fill:#FFFFFF;}
	.st2{fill:#D1D2D1;}
	.st3{fill:#134D60;}
	.st4{fill:#ED1F24;}
	.st5{fill:#444545;}
	.st6{fill:#7351A1;}
</style>
<rect id="XMLID_30_" x="1111.94" y="1035.49" width="1080" height="640"/>
<g id="XMLID_460_">
	
		<text id="XMLID_1452_" transform="matrix(1 0 0 1 1355.9929 249.3517)" class="st0" style="font-family:'UniSansHeavyCAPS'; font-size:124.7179px;">filmbook</text>
	<g id="XMLID_1454_">
		
			<text transform="matrix(1 0 0 1 1404.1023 296.5256)" class="st4" style="font-family:'BebasNeue'; font-size:38.3888px; letter-spacing:7;">VIDEO PRODUCTION company</text>
	</g>
	<g id="XMLID_455_">
		<path id="XMLID_1267_" class="st0" d="M1766.06-148.93c-60.75-60.75-150.91-69.1-201.36-18.65c-7.37,7.37-13.46,15.62-18.34,24.47
			c-9.94,5.13-19.15,11.74-27.31,19.91c-50.75,50.75-42.35,141.42,18.75,202.53c61.11,61.11,151.78,69.5,202.53,18.75
			c8.16-8.16,14.78-17.37,19.91-27.31c8.86-4.88,17.1-10.96,24.47-18.34C1835.16,1.97,1826.81-88.18,1766.06-148.93z M1774.43,46.03
			c-2.43,2.43-4.68,4.68-6.79,6.79c0.58-1.84,1.14-3.68,1.63-5.55c2.37-8.95,3.72-18.27,4.1-27.77c0.55-13.7-0.98-27.81-4.48-41.84
			c9.35,41.87,0.28,84.08-28.52,112.89c-20.97,20.97-49.49,32.17-81.33,32.17c-4.27,0-8.59-0.2-12.96-0.61
			c-36.94-3.42-73-21.01-101.53-49.54c-58.94-58.94-67.01-146.79-17.98-195.82c12.81-12.81,28.43-21.97,46.44-27.22l0.32-0.09v-2.41
			c-0.75,0.18-1.5,0.34-2.25,0.53c-2.28,0.58-4.55,1.22-6.78,1.92c2.12-2.12,4.36-4.36,6.79-6.79
			c46.15-46.15,129.31-38.09,185.36,17.97C1812.52-83.28,1820.58-0.12,1774.43,46.03z"/>
		<path id="XMLID_1269_" class="st1" d="M1740.24-99.14c29.63,37.02,46.32,83.71,35.88,128.9c15.72-39.05,7.15-82.92-13.87-120.41
			c22.12,36.01,32.2,78.35,20.16,117.5c11.53-22.75,14.25-48.96,10.1-74.85c3.32,15.19,4.25,30.61,2.43,45.55
			c10.47-42.57-4.52-94.1-42.88-132.47c-37.83-37.83-88.47-52.93-130.68-43.3c20.11-2.18,40.94,0.62,60.69,7.37
			c-30.84-8.84-64.05-8.37-92.13,5.85c18.88-5.65,39.04-6.28,58.95-2.64c-23.5-2.68-46.99,0.51-67.76,10.86
			c12.16-2.54,35.34-5.92,45.76,2.37l-0.32-0.03c3.4,0.55,6.81,1.25,10.22,2.04c31.24,6.35,61.17,22.71,85.6,47.13
			c24.31,24.31,39.94,53.54,46.51,82.93c3.5,14.03,5.03,28.14,4.48,41.84C1781.05-21.74,1765.94-64.56,1740.24-99.14z"/>
		<path id="XMLID_1270_" class="st2" d="M1756.46-139.33c-56.06-56.06-139.21-64.12-185.36-17.97c-2.43,2.43-4.67,4.67-6.79,6.79
			c2.24-0.71,4.5-1.35,6.78-1.92c0.75-0.19,1.5-0.36,2.25-0.53v-1.96c0,0,3.07-0.86,7.8-1.85c20.77-10.35,44.26-13.53,67.76-10.86
			c-19.91-3.64-40.07-3.01-58.95,2.64c28.08-14.22,61.29-14.69,92.13-5.85c-19.75-6.75-40.58-9.56-60.69-7.37
			c42.22-9.63,92.85,5.46,130.68,43.3c38.37,38.37,53.36,89.9,42.88,132.47c1.82-14.94,0.88-30.36-2.43-45.55
			c4.15,25.89,1.44,52.1-10.1,74.85c12.04-39.15,1.96-81.5-20.16-117.5c21.01,37.49,29.59,81.36,13.87,120.41
			c10.45-45.18-6.24-91.88-35.88-128.9c25.7,34.59,40.81,77.41,33.13,118.65c-0.38,9.5-1.73,18.82-4.1,27.77
			c-0.5,1.87-1.05,3.71-1.63,5.55c2.11-2.11,4.36-4.36,6.79-6.79C1820.58-0.12,1812.52-83.28,1756.46-139.33z"/>
		<rect id="XMLID_1271_" x="1725.62" y="20.26" class="st1" width="0" height="0"/>
		<path id="XMLID_1274_" class="st1" d="M1738.13,12.59c2.17-1.87,4.11-4.03,5.66-6.56c4.53-7.39,5.72-16.71,3.36-26.24
			c-3.1-12.55-11.75-23.49-22.93-29.88c-0.58-0.33-1.18-0.62-1.77-0.93C1733.85-30.52,1739.16-8.33,1738.13,12.59z"/>
		<path id="XMLID_1277_" class="st0" d="M1636.83-31.4c-1.23,1.23-1.81,2.99-1.63,4.94c0.19,2.04,1.17,4.03,2.76,5.62
			c1.59,1.59,3.58,2.57,5.62,2.76c1.96,0.19,3.71-0.4,4.94-1.63c2.6-2.6,2.09-7.34-1.13-10.56
			C1644.17-33.49,1639.43-33.99,1636.83-31.4z"/>
		<path id="XMLID_1280_" class="st0" d="M1644.42-4.4c-0.23-0.02-0.47-0.03-0.7-0.03c-1.67,0-3.16,0.58-4.25,1.66
			c-2.6,2.6-2.09,7.34,1.13,10.56c3.22,3.22,7.96,3.73,10.56,1.13c1.23-1.23,1.81-2.99,1.63-4.94c-0.19-2.04-1.17-4.03-2.75-5.62
			C1648.45-3.23,1646.46-4.21,1644.42-4.4z"/>
		<path id="XMLID_1282_" class="st0" d="M1622.54,6.27c2.6-2.6,2.09-7.34-1.13-10.56c-1.84-1.84-4.16-2.79-6.31-2.79
			c-1.62,0-3.13,0.54-4.25,1.66c-2.6,2.6-2.09,7.34,1.13,10.56C1615.2,8.36,1619.94,8.87,1622.54,6.27z"/>
		<path id="XMLID_1283_" class="st1" d="M1534.63-93.37c-7.99,2.63-14.23,8.28-17.57,15.91c-4.75,10.87-3.15,24.2,4.22,35.95
			c1.75-20.12,9.5-38.88,23.47-53.46C1541.26-94.92,1537.85-94.43,1534.63-93.37z"/>
		<path id="XMLID_1286_" class="st0" d="M1613.15-35.67c-0.23-0.02-0.47-0.03-0.7-0.03c-1.67,0-3.16,0.58-4.24,1.66
			c-2.6,2.6-2.1,7.34,1.13,10.56c1.59,1.59,3.58,2.57,5.62,2.76c1.96,0.19,3.71-0.4,4.94-1.63c1.23-1.23,1.81-2.99,1.63-4.94
			c-0.19-2.04-1.17-4.03-2.75-5.62C1617.18-34.5,1615.18-35.48,1613.15-35.67z"/>
		<path id="XMLID_1287_" class="st1" d="M1694.59,100.07c7.63-3.34,13.28-9.58,15.91-17.57c1.09-3.31,1.59-6.82,1.61-10.4
			c-14.61,14-33.49,21.89-53.63,23.64c5.53,3.36,11.45,5.86,17.92,6.71C1682.53,103.26,1688.89,102.57,1694.59,100.07z"/>
		<path id="XMLID_1289_" class="st1" d="M1580.21,78.4c2.56,0.24,5.06,0.21,7.47-0.06c-9.7-5.77-19.07-12.94-27.57-21.44
			c-8.44-8.44-15.52-17.65-21.27-27.26c-1.34,12.25,3.62,25.29,13.49,35.16C1560.17,72.64,1570.07,77.47,1580.21,78.4z"/>
		<path id="XMLID_1290_" class="st0" d="M1678.02-43.96c-5.62,7.7-7.29,17.74-4.69,28.27c0.85,3.43,2.11,6.76,3.74,9.9
			c3.96,7.68,10.02,14.26,17.31,18.89c7.38,4.69,16.15,7.4,24.93,6.92c6.97-0.4,13.64-2.98,18.82-7.43
			c1.03-20.92-4.29-43.11-15.68-63.61C1708-58.4,1688.32-58.05,1678.02-43.96z"/>
		<polygon id="XMLID_1292_" class="st0" points="1725.62,20.26 1725.62,20.26 1725.62,20.26 		"/>
		<path id="XMLID_1293_" class="st0" d="M1706.24,50.8c-8.25-14.35-23.41-23.81-38.62-24.1c-5.01-0.13-9.76,0.79-14.09,2.68
			c-7.63,3.34-13.28,9.58-15.91,17.57c-3.24,9.82-1.69,21.38,4.25,31.7c0.38,0.65,0.77,1.3,1.18,1.94
			c3.72,5.82,8.72,10.98,14.58,14.65c0.27,0.17,0.55,0.33,0.83,0.5c20.15-1.75,39.03-9.64,53.63-23.64
			C1712.14,65.03,1710.18,57.65,1706.24,50.8z"/>
		<path id="XMLID_1295_" class="st0" d="M1587.68,78.34c7.05-0.79,13.31-3.7,18.11-8.5c13.35-13.35,11.09-37.33-5.04-53.46
			c-8.8-8.8-20.38-13.79-31.54-13.75c-8.62,0.02-16.44,3.12-22.04,8.71c-4.3,4.29-7.13,9.94-8.2,16.34l0.03,0.53
			c-0.07,0.48-0.12,0.96-0.17,1.44c5.75,9.62,12.83,18.82,21.27,27.26C1568.61,65.4,1577.98,72.56,1587.68,78.34z"/>
		<path id="XMLID_1296_" class="st0" d="M1573.33-84.21l-0.72-0.58c-2.09-1.68-4.15-3.1-6.29-4.33c-6.94-3.99-14.42-5.95-21.57-5.85
			c-13.98,14.59-21.72,33.35-23.47,53.46c0.26,0.42,0.51,0.84,0.79,1.25l0.22,0.33l-0.01,0.15c4.2,6.12,9.76,11.28,16.09,14.91
			c7.12,4.09,14.83,6.15,22.24,5.89c12.35-0.36,22.5-6.92,27.15-17.55c2.24-5.12,3.09-10.98,2.47-17.04l-0.27-1.35
			c-0.06-0.42-0.14-0.83-0.22-1.25l1.02-0.77c0-0.02-0.01-0.04-0.01-0.06l-17.4,11.73V-84.21z"/>
		<path id="XMLID_1297_" class="st1" d="M1620.14-120.72c9.32,0.91,18.75,3.06,28.03,6.34c6.76,2.39,13.44,5.39,19.96,9.01
			c-6.15-11.77-17.45-21.36-30.79-24.65c-5.81-1.44-11.51-1.55-16.96-0.33c-0.95,0.21-1.93,0.49-3.09,0.88l-0.36,0.12v-1.21
			c0,0-0.01,0-0.01,0v9.6C1618-120.9,1619.07-120.83,1620.14-120.72z"/>
		<polygon id="XMLID_1298_" class="st3" points="1616.94,-62.33 1616.94,-62.33 1616.94,-62.41 1616.94,-62.42 		"/>
		<path id="XMLID_1301_" class="st0" d="M1620.14-120.72c-1.07-0.1-2.14-0.18-3.2-0.25v58.56c0,0,0,0,0,0l0-1.32l0.65,0.45
			c1.02,0.71,2.06,1.39,3.13,2.01c3.87,2.27,7.9,3.93,11.98,4.94c2.6,0.64,5.23,1.03,7.82,1.14c17.64,0.8,31.35-11.1,32.51-28.41
			c0.5-7.47-1.35-14.99-4.9-21.79c-6.51-3.62-13.2-6.62-19.96-9.01C1638.89-117.66,1629.46-119.81,1620.14-120.72z"/>
		<path id="XMLID_1302_" class="st4" d="M1573.33-85.69v0.11v1.37v38.94l17.4-11.73l0.86-0.58l1.54,1.12l23.8,17.31v-2.33v-20.86
			v-0.08v-58.56v-9.6v-23.61v-1.17l9.64,0.92l0.32,0.03c-10.43-8.29-33.6-4.91-45.76-2.37c-4.73,0.99-7.8,1.85-7.8,1.85v1.96v2.41
			v1.2V-85.69z"/>
		<path id="XMLID_1307_" class="st5" d="M1636.79-152.4c-3.41-0.79-6.81-1.49-10.22-2.04l-9.64-0.92v1.17v23.61c0,0,0.01,0,0.01,0
			v1.21l0.36-0.12c1.15-0.39,2.13-0.66,3.09-0.88c5.44-1.21,11.15-1.1,16.96,0.33c13.34,3.3,24.64,12.88,30.79,24.65
			c3.55,6.8,5.4,14.32,4.9,21.79c-1.16,17.31-14.87,29.21-32.51,28.41c-2.59-0.12-5.22-0.5-7.82-1.14
			c-4.08-1.01-8.11-2.67-11.98-4.94c-1.07-0.63-2.11-1.31-3.13-2.01l-0.65-0.45l0,1.32v0.08c0,0,0,0,0,0v20.86v2.33l-23.8-17.31
			l-1.54-1.12l-0.86,0.58c0,0.02,0.01,0.04,0.01,0.06l-1.02,0.77c0.08,0.42,0.17,0.84,0.22,1.25l0.27,1.35
			c0.61,6.06-0.24,11.93-2.47,17.04c-4.65,10.63-14.8,17.19-27.15,17.55c-7.41,0.26-15.12-1.8-22.24-5.89
			c-6.33-3.64-11.88-8.79-16.09-14.91l0.01-0.15l-0.22-0.33c-0.28-0.41-0.53-0.83-0.79-1.25c-7.37-11.75-8.98-25.09-4.22-35.95
			c3.34-7.63,9.58-13.28,17.57-15.91c3.22-1.06,6.64-1.56,10.13-1.6c7.15-0.09,14.64,1.86,21.57,5.85c2.14,1.23,4.19,2.65,6.29,4.33
			l0.72,0.58v-1.37v-0.11v-63.68v-1.2l-0.32,0.09c-18.01,5.26-33.63,14.42-46.44,27.22c-49.03,49.03-40.96,136.87,17.98,195.82
			c28.53,28.53,64.58,46.12,101.53,49.54c4.37,0.41,8.69,0.61,12.96,0.61c31.84,0,60.36-11.19,81.33-32.17
			c28.81-28.81,37.88-71.02,28.52-112.89c-6.57-29.39-22.2-58.62-46.51-82.93C1697.96-129.69,1668.04-146.05,1636.79-152.4z
			 M1610.85-5.42c1.12-1.12,2.63-1.66,4.25-1.66c2.14,0,4.47,0.95,6.31,2.79c3.22,3.22,3.73,7.96,1.13,10.56
			c-2.6,2.6-7.34,2.09-10.56-1.13C1608.76,1.92,1608.25-2.82,1610.85-5.42z M1619.89-22.35c-1.23,1.23-2.98,1.82-4.94,1.63
			c-2.03-0.19-4.03-1.17-5.62-2.76c-3.22-3.22-3.73-7.96-1.13-10.56c1.08-1.08,2.57-1.66,4.24-1.66c0.23,0,0.46,0.01,0.7,0.03
			c2.04,0.19,4.03,1.17,5.62,2.76c1.59,1.59,2.57,3.58,2.75,5.62C1621.7-25.34,1621.12-23.58,1619.89-22.35z M1538.84,29.64
			c0.05-0.48,0.1-0.96,0.17-1.44l-0.03-0.53c1.07-6.4,3.9-12.04,8.2-16.34c5.6-5.6,13.42-8.69,22.04-8.71
			c11.16-0.04,22.73,4.95,31.54,13.75c16.13,16.13,18.39,40.11,5.04,53.46c-4.8,4.8-11.06,7.71-18.11,8.5
			c-2.41,0.27-4.91,0.3-7.47,0.06c-10.14-0.93-20.04-5.76-27.88-13.6C1542.46,54.93,1537.5,41.89,1538.84,29.64z M1722.46-51.03
			c0.6,0.3,1.2,0.6,1.77,0.93c11.17,6.39,19.83,17.33,22.93,29.88c2.36,9.53,1.16,18.86-3.36,26.24c-1.55,2.53-3.49,4.69-5.66,6.56
			c-5.18,4.45-11.85,7.03-18.82,7.43c-8.78,0.48-17.55-2.23-24.93-6.92c-7.29-4.63-13.35-11.21-17.31-18.89
			c-1.62-3.14-2.89-6.47-3.74-9.9c-2.6-10.53-0.94-20.57,4.69-28.27C1688.32-58.05,1708-58.4,1722.46-51.03z M1657.64,95.24
			c-5.86-3.68-10.86-8.84-14.58-14.65c-0.41-0.64-0.8-1.28-1.18-1.94c-5.94-10.32-7.48-21.88-4.25-31.7
			c2.63-7.99,8.28-14.23,15.91-17.57c4.32-1.89,9.07-2.81,14.09-2.68c15.21,0.29,30.37,9.75,38.62,24.1
			c3.94,6.85,5.9,14.23,5.86,21.3c-0.02,3.59-0.52,7.1-1.61,10.4c-2.63,7.99-8.28,14.23-15.91,17.57c-5.7,2.5-12.05,3.19-18.19,2.38
			c-6.47-0.85-12.39-3.36-17.92-6.71C1658.19,95.57,1657.91,95.41,1657.64,95.24z M1651.17,8.92c-2.6,2.6-7.34,2.09-10.56-1.13
			c-3.22-3.22-3.73-7.96-1.13-10.56c1.08-1.08,2.57-1.66,4.25-1.66c0.23,0,0.46,0.01,0.7,0.03c2.03,0.19,4.03,1.17,5.62,2.76
			c1.59,1.59,2.57,3.58,2.75,5.62C1652.98,5.93,1652.4,7.69,1651.17,8.92z M1648.52-19.71c-1.23,1.23-2.98,1.82-4.94,1.63
			c-2.03-0.19-4.03-1.17-5.62-2.76c-1.59-1.59-2.57-3.58-2.76-5.62c-0.18-1.95,0.4-3.71,1.63-4.94c2.6-2.6,7.34-2.09,10.56,1.13
			C1650.62-27.05,1651.12-22.31,1648.52-19.71z M1725.62,20.26L1725.62,20.26L1725.62,20.26L1725.62,20.26L1725.62,20.26
			L1725.62,20.26z"/>
	</g>
</g>
<g id="XMLID_912_">
	<g>
		<path class="st1" d="M313.82,63.11v14.72h-31.8v20.95h29.93v14.72h-29.93v38.66h-17.96V63.11H313.82z"/>
		<path class="st1" d="M322.68,63.11h17.96v89.05h-17.96V63.11z"/>
		<path class="st1" d="M353.98,63.11h17.96v74.33h31.8v14.72h-49.76V63.11z"/>
		<path class="st1" d="M438.79,63.11l12.72,62.86h0.25l12.85-62.86h26.57v89.05h-16.46V81.07h-0.25l-15.84,71.09h-13.97
			l-15.84-71.09h-0.25v71.09H412.1V63.11H438.79z"/>
		<path class="st1" d="M534.07,63.11c3.66,0,7.05,0.37,10.16,1.12c3.12,0.75,5.8,2,8.04,3.74s3.99,4.08,5.24,6.98
			c1.25,2.91,1.87,6.49,1.87,10.73c0,4.82-1.12,8.96-3.37,12.41c-2.25,3.45-5.61,5.8-10.1,7.05v0.25c4.99,0.67,8.94,2.79,11.85,6.36
			c2.91,3.58,4.37,8.36,4.37,14.34c0,3.49-0.46,6.82-1.37,9.98c-0.92,3.16-2.47,5.92-4.68,8.29c-2.2,2.37-5.07,4.26-8.61,5.67
			c-3.54,1.42-7.92,2.12-13.16,2.12h-30.31V63.11H534.07z M527.09,99.66c4.99,0,8.62-0.89,10.91-2.68c2.29-1.79,3.43-4.8,3.43-9.04
			s-1.04-7.23-3.12-8.98c-2.08-1.75-5.36-2.62-9.85-2.62h-6.49v23.32H527.09z M528.96,138.94c4.32,0,7.81-0.96,10.48-2.87
			c2.66-1.91,3.99-5.44,3.99-10.6c0-2.58-0.35-4.72-1.06-6.42c-0.71-1.7-1.66-3.08-2.87-4.12c-1.21-1.04-2.64-1.77-4.3-2.18
			c-1.66-0.42-3.49-0.62-5.49-0.62h-7.73v26.81H528.96z"/>
		<path class="st1" d="M572.42,88.99c0.62-5.69,2-10.58,4.12-14.65c2.12-4.07,5.18-7.25,9.17-9.54c3.99-2.29,9.35-3.43,16.09-3.43
			c6.73,0,12.1,1.14,16.09,3.43c3.99,2.29,7.05,5.47,9.17,9.54c2.12,4.08,3.49,8.96,4.12,14.65c0.62,5.7,0.94,11.91,0.94,18.65
			c0,6.82-0.31,13.05-0.94,18.71c-0.62,5.66-2,10.52-4.12,14.59c-2.12,4.08-5.18,7.19-9.17,9.35c-3.99,2.16-9.35,3.24-16.09,3.24
			c-6.74,0-12.1-1.08-16.09-3.24s-7.05-5.28-9.17-9.35c-2.12-4.07-3.49-8.94-4.12-14.59c-0.62-5.65-0.94-11.89-0.94-18.71
			C571.49,100.9,571.8,94.69,572.42,88.99z M589.88,122.92c0.29,4.2,0.87,7.61,1.75,10.23s2.12,4.53,3.74,5.74
			c1.62,1.21,3.76,1.81,6.42,1.81c2.66,0,4.8-0.6,6.42-1.81c1.62-1.2,2.87-3.12,3.74-5.74s1.45-6.03,1.75-10.23
			c0.29-4.2,0.44-9.29,0.44-15.28s-0.15-11.06-0.44-15.22c-0.29-4.16-0.87-7.56-1.75-10.23c-0.87-2.66-2.12-4.59-3.74-5.8
			c-1.62-1.2-3.76-1.81-6.42-1.81c-2.66,0-4.8,0.6-6.42,1.81c-1.62,1.21-2.87,3.14-3.74,5.8c-0.87,2.66-1.46,6.07-1.75,10.23
			c-0.29,4.16-0.44,9.23-0.44,15.22S589.59,118.72,589.88,122.92z"/>
		<path class="st1" d="M641.77,88.99c0.62-5.69,2-10.58,4.12-14.65c2.12-4.07,5.18-7.25,9.17-9.54c3.99-2.29,9.35-3.43,16.09-3.43
			c6.73,0,12.1,1.14,16.09,3.43c3.99,2.29,7.05,5.47,9.17,9.54c2.12,4.08,3.49,8.96,4.12,14.65c0.62,5.7,0.94,11.91,0.94,18.65
			c0,6.82-0.31,13.05-0.94,18.71c-0.62,5.66-2,10.52-4.12,14.59c-2.12,4.08-5.18,7.19-9.17,9.35c-3.99,2.16-9.35,3.24-16.09,3.24
			c-6.74,0-12.1-1.08-16.09-3.24s-7.05-5.28-9.17-9.35c-2.12-4.07-3.49-8.94-4.12-14.59c-0.62-5.65-0.94-11.89-0.94-18.71
			C640.83,100.9,641.14,94.69,641.77,88.99z M659.22,122.92c0.29,4.2,0.87,7.61,1.75,10.23s2.12,4.53,3.74,5.74
			c1.62,1.21,3.76,1.81,6.42,1.81c2.66,0,4.8-0.6,6.42-1.81c1.62-1.2,2.87-3.12,3.74-5.74s1.45-6.03,1.75-10.23
			c0.29-4.2,0.44-9.29,0.44-15.28s-0.15-11.06-0.44-15.22c-0.29-4.16-0.87-7.56-1.75-10.23c-0.87-2.66-2.12-4.59-3.74-5.8
			c-1.62-1.2-3.76-1.81-6.42-1.81c-2.66,0-4.8,0.6-6.42,1.81c-1.62,1.21-2.87,3.14-3.74,5.8c-0.87,2.66-1.46,6.07-1.75,10.23
			c-0.29,4.16-0.44,9.23-0.44,15.22S658.93,118.72,659.22,122.92z"/>
		<path class="st1" d="M730,98.78h0.25l22.7-35.67h19.46l-24.2,38.16l26.94,50.88h-20.2l-18.33-36.54l-6.61,10.1v26.44h-17.96V63.11
			H730V98.78z"/>
	</g>
	<path id="XMLID_1235_" class="st1" d="M213.44,103.49c-2.27-24.8-13.92-48.98-32.8-68.07h0C141.42-4.24,82.75-9.44,49.85,23.83
		c-4.39,4.44-8.21,9.48-11.37,15.01c-6.17,3.38-11.78,7.61-16.7,12.57c-33.08,33.45-27.91,93.1,11.53,132.98
		c18.98,19.2,43.02,31.04,67.69,33.35c2.94,0.28,5.85,0.41,8.71,0.41c21.53,0,40.86-7.69,55.11-22.1
		c4.91-4.97,9.09-10.64,12.43-16.88c5.47-3.19,10.46-7.06,14.85-11.5C208.17,151.44,215.74,128.64,213.44,103.49z"/>
	<g id="XMLID_929_">
		<path id="XMLID_1230_" class="st0" d="M176.15,40.35C138.9,3.11,83.64-2.01,52.71,28.92c-4.52,4.52-8.25,9.57-11.24,15
			c-6.09,3.14-11.74,7.2-16.74,12.2c-31.11,31.11-25.96,86.69,11.5,124.15c37.46,37.46,93.04,42.61,124.15,11.5
			c5-5,9.06-10.65,12.2-16.74c5.43-2.99,10.48-6.72,15-11.24C218.51,132.86,213.39,77.6,176.15,40.35z M181.28,159.87
			c-1.49,1.49-2.87,2.87-4.16,4.16c0.36-1.13,0.7-2.26,1-3.4c1.45-5.49,2.28-11.2,2.51-17.02c0.34-8.4-0.6-17.05-2.74-25.65
			c5.73,25.67,0.17,51.54-17.49,69.2c-12.85,12.86-30.34,19.72-49.86,19.72c-2.61,0-5.26-0.12-7.94-0.37
			c-22.65-2.1-44.75-12.88-62.24-30.37C4.23,140-0.72,86.16,29.34,56.1c7.85-7.85,17.43-13.47,28.47-16.69l0.2-0.06v-1.47
			c-0.46,0.11-0.92,0.21-1.38,0.33c-1.4,0.36-2.79,0.75-4.16,1.18c1.3-1.3,2.67-2.67,4.16-4.16C84.93,6.93,135.9,11.87,170.26,46.24
			C204.63,80.6,209.57,131.58,181.28,159.87z"/>
		<path id="XMLID_1229_" class="st1" d="M160.32,70.87c18.17,22.69,28.4,51.32,21.99,79.01c9.64-23.94,4.38-50.83-8.5-73.81
			c13.56,22.07,19.74,48.03,12.36,72.03c7.07-13.95,8.73-30.02,6.19-45.89c2.03,9.31,2.61,18.76,1.49,27.92
			c6.42-26.09-2.77-57.69-26.29-81.2c-23.19-23.19-54.23-32.44-80.11-26.54c12.32-1.34,25.1,0.38,37.2,4.52
			c-18.9-5.42-39.26-5.13-56.48,3.59c11.57-3.46,23.93-3.85,36.14-1.62c-14.41-1.64-28.81,0.31-41.54,6.66
			c7.46-1.56,21.66-3.63,28.05,1.45l-0.2-0.02c2.09,0.34,4.18,0.77,6.26,1.25c19.15,3.89,37.5,13.92,52.47,28.89
			c14.9,14.9,24.48,32.82,28.51,50.83c2.15,8.6,3.08,17.25,2.74,25.65C185.34,118.33,176.07,92.08,160.32,70.87z"/>
		<path id="XMLID_1228_" class="st2" d="M170.26,46.24C135.9,11.87,84.93,6.93,56.63,35.22c-1.49,1.49-2.86,2.86-4.16,4.16
			c1.37-0.43,2.76-0.82,4.16-1.18c0.46-0.12,0.92-0.22,1.38-0.33v-1.2c0,0,1.88-0.53,4.78-1.13c12.73-6.34,27.13-8.3,41.54-6.66
			c-12.2-2.23-24.57-1.85-36.14,1.62c17.21-8.72,37.57-9.01,56.48-3.59c-12.1-4.14-24.88-5.86-37.2-4.52
			c25.88-5.9,56.92,3.35,80.11,26.54c23.52,23.52,32.71,55.11,26.29,81.2c1.12-9.16,0.54-18.61-1.49-27.92
			c2.54,15.87,0.88,31.94-6.19,45.89c7.38-24,1.2-49.96-12.36-72.03c12.88,22.98,18.14,49.88,8.5,73.81
			c6.4-27.7-3.83-56.32-21.99-79.01c15.75,21.2,25.02,47.45,20.31,72.73c-0.24,5.83-1.06,11.53-2.51,17.02
			c-0.3,1.14-0.64,2.28-1,3.4c1.29-1.29,2.67-2.67,4.16-4.16C209.57,131.58,204.63,80.6,170.26,46.24z"/>
		<rect id="XMLID_1227_" x="151.36" y="144.07" class="st1" width="0" height="0"/>
		<path id="XMLID_1226_" class="st1" d="M159.03,139.37c1.33-1.15,2.52-2.47,3.47-4.02c2.78-4.53,3.51-10.24,2.06-16.09
			c-1.9-7.69-7.21-14.4-14.05-18.32c-0.35-0.2-0.72-0.38-1.09-0.57C156.4,112.94,159.66,126.55,159.03,139.37z"/>
		<path id="XMLID_1225_" class="st0" d="M96.93,112.4c-0.75,0.75-1.11,1.83-1,3.03c0.12,1.25,0.72,2.47,1.69,3.44
			c0.97,0.97,2.2,1.58,3.44,1.69c1.2,0.12,2.27-0.24,3.03-1c1.59-1.59,1.28-4.5-0.69-6.47C101.43,111.12,98.52,110.81,96.93,112.4z"
			/>
		<path id="XMLID_1224_" class="st0" d="M101.58,128.96c-0.14-0.01-0.29-0.02-0.43-0.02c-1.03,0-1.94,0.36-2.6,1.02
			c-1.59,1.59-1.28,4.5,0.69,6.47c1.97,1.97,4.88,2.28,6.47,0.69c0.75-0.75,1.11-1.83,1-3.03c-0.12-1.25-0.71-2.47-1.69-3.44
			C104.05,129.67,102.83,129.07,101.58,128.96z"/>
		<path id="XMLID_1223_" class="st0" d="M88.17,135.5c1.59-1.59,1.28-4.5-0.69-6.47c-1.12-1.12-2.55-1.71-3.87-1.71
			c-0.99,0-1.92,0.33-2.61,1.02c-1.59,1.59-1.28,4.5,0.69,6.47C83.67,136.78,86.58,137.09,88.17,135.5z"/>
		<path id="XMLID_1222_" class="st1" d="M34.28,74.42c-4.9,1.61-8.72,5.08-10.77,9.75c-2.91,6.66-1.93,14.84,2.59,22.04
			c1.07-12.33,5.82-23.83,14.39-32.77C38.35,73.46,36.25,73.77,34.28,74.42z"/>
		<path id="XMLID_1221_" class="st0" d="M82.41,109.78c-0.14-0.01-0.29-0.02-0.43-0.02c-1.03,0-1.94,0.36-2.6,1.02
			c-1.59,1.59-1.28,4.5,0.69,6.47c0.97,0.97,2.2,1.57,3.44,1.69c1.2,0.12,2.27-0.24,3.03-1c0.75-0.75,1.11-1.83,1-3.03
			c-0.11-1.25-0.71-2.47-1.69-3.44C84.88,110.5,83.66,109.9,82.41,109.78z"/>
		<path id="XMLID_1220_" class="st1" d="M132.33,192.99c4.67-2.05,8.14-5.87,9.75-10.77c0.67-2.03,0.97-4.18,0.99-6.38
			c-8.95,8.58-20.53,13.42-32.88,14.49c3.39,2.06,7.02,3.59,10.99,4.12C124.95,194.95,128.84,194.52,132.33,192.99z"/>
		<path id="XMLID_1219_" class="st1" d="M62.22,179.71c1.57,0.15,3.1,0.13,4.58-0.04c-5.95-3.54-11.69-7.93-16.9-13.14
			c-5.18-5.18-9.51-10.82-13.04-16.71c-0.82,7.51,2.22,15.5,8.27,21.55C49.93,176.18,56,179.14,62.22,179.71z"/>
		<path id="XMLID_1218_" class="st0" d="M122.18,104.71c-3.45,4.72-4.47,10.87-2.87,17.33c0.52,2.1,1.3,4.14,2.29,6.07
			c2.43,4.71,6.14,8.74,10.61,11.58c4.52,2.87,9.9,4.54,15.28,4.24c4.27-0.25,8.36-1.83,11.54-4.56c0.63-12.82-2.63-26.43-9.61-39
			C140.56,95.85,128.5,96.06,122.18,104.71z"/>
		<polygon id="XMLID_1217_" class="st0" points="151.36,144.07 151.36,144.07 151.36,144.07 		"/>
		<path id="XMLID_1216_" class="st0" d="M139.48,162.79c-5.06-8.8-14.35-14.6-23.67-14.78c-3.07-0.08-5.99,0.49-8.63,1.65
			c-4.68,2.05-8.14,5.87-9.75,10.77c-1.98,6.02-1.03,13.1,2.6,19.43c0.23,0.4,0.47,0.8,0.72,1.19c2.28,3.57,5.35,6.73,8.94,8.98
			c0.17,0.11,0.34,0.2,0.51,0.31c12.35-1.07,23.92-5.91,32.88-14.49C143.1,171.51,141.89,166.99,139.48,162.79z"/>
		<path id="XMLID_1215_" class="st0" d="M66.8,179.67c4.32-0.48,8.16-2.27,11.1-5.21c8.18-8.18,6.8-22.89-3.09-32.77
			c-5.4-5.4-12.49-8.45-19.33-8.43c-5.28,0.01-10.08,1.91-13.51,5.34c-2.63,2.63-4.37,6.09-5.02,10.01l0.02,0.32
			c-0.04,0.29-0.07,0.59-0.1,0.88c3.52,5.9,7.86,11.54,13.04,16.71C55.11,171.74,60.85,176.13,66.8,179.67z"/>
		<path id="XMLID_1213_" class="st0" d="M58.01,80.03l-0.44-0.36c-1.28-1.03-2.54-1.9-3.85-2.65c-4.25-2.45-8.84-3.64-13.23-3.59
			c-8.57,8.94-13.32,20.44-14.39,32.77c0.16,0.26,0.31,0.51,0.48,0.77l0.13,0.2l-0.01,0.09c2.58,3.75,5.98,6.91,9.86,9.14
			c4.36,2.51,9.09,3.77,13.63,3.61c7.57-0.22,13.79-4.24,16.64-10.76c1.37-3.14,1.89-6.73,1.52-10.45l-0.17-0.83
			c-0.03-0.25-0.09-0.51-0.14-0.77l0.63-0.47c0-0.01,0-0.02-0.01-0.04l-10.67,7.19V80.03z"/>
		<path id="XMLID_1210_" class="st1" d="M86.7,57.65c5.72,0.56,11.49,1.88,17.19,3.88c4.14,1.46,8.24,3.3,12.23,5.52
			c-3.77-7.22-10.7-13.09-18.87-15.11c-3.56-0.88-7.06-0.95-10.4-0.2c-0.58,0.13-1.19,0.3-1.89,0.54l-0.22,0.07V51.6c0,0,0,0,0,0
			v5.89C85.39,57.54,86.04,57.58,86.7,57.65z"/>
		<polygon id="XMLID_1209_" class="st3" points="84.73,93.44 84.74,93.44 84.74,93.39 84.73,93.39 		"/>
		<path id="XMLID_1207_" class="st0" d="M86.7,57.65c-0.66-0.06-1.31-0.11-1.96-0.15v35.9c0,0,0,0,0,0l0-0.81l0.4,0.28
			c0.62,0.43,1.26,0.85,1.92,1.24c2.37,1.39,4.84,2.41,7.35,3.03c1.6,0.39,3.21,0.63,4.79,0.7c10.82,0.49,19.22-6.8,19.93-17.41
			c0.31-4.58-0.83-9.19-3-13.36c-3.99-2.22-8.09-4.06-12.23-5.52C98.19,59.52,92.41,58.21,86.7,57.65z"/>
		<path id="XMLID_1188_" class="st6" d="M58.01,79.12v0.06v0.84v23.87l10.67-7.19l0.53-0.35l0.94,0.69l14.59,10.61v-1.43V93.44
			v-0.05v-35.9v-5.89V37.13v-0.72l5.91,0.57l0.2,0.02c-6.39-5.08-20.6-3.01-28.05-1.45c-2.9,0.61-4.78,1.13-4.78,1.13v1.2v1.47v0.73
			V79.12z"/>
		<path id="XMLID_930_" class="st5" d="M96.91,38.23c-2.09-0.48-4.18-0.91-6.26-1.25l-5.91-0.57v0.72v14.47c0,0,0,0,0,0l0,0.74
			l0.22-0.07c0.71-0.24,1.31-0.41,1.89-0.54c3.34-0.74,6.83-0.68,10.4,0.2c8.18,2.02,15.1,7.9,18.87,15.11
			c2.18,4.17,3.31,8.78,3,13.36c-0.71,10.61-9.11,17.9-19.93,17.41c-1.59-0.07-3.2-0.31-4.79-0.7c-2.5-0.62-4.97-1.64-7.35-3.03
			c-0.66-0.38-1.29-0.8-1.92-1.24l-0.4-0.28l0,0.81v0.05c0,0,0,0,0,0v12.79v1.43L70.14,97.04l-0.94-0.69l-0.53,0.35
			c0,0.01,0,0.02,0.01,0.04l-0.63,0.47c0.05,0.26,0.1,0.51,0.14,0.77l0.17,0.83c0.38,3.72-0.14,7.31-1.52,10.45
			c-2.85,6.52-9.07,10.54-16.64,10.76c-4.54,0.16-9.27-1.1-13.63-3.61c-3.88-2.23-7.28-5.39-9.86-9.14l0.01-0.09l-0.13-0.2
			c-0.17-0.25-0.32-0.51-0.48-0.77c-4.52-7.2-5.5-15.38-2.59-22.04c2.05-4.67,5.87-8.14,10.77-9.75c1.97-0.65,4.07-0.95,6.21-0.98
			c4.38-0.06,8.97,1.14,13.23,3.59c1.31,0.75,2.57,1.62,3.85,2.65l0.44,0.36v-0.84v-0.06V40.09v-0.73l-0.2,0.06
			c-11.04,3.22-20.62,8.84-28.47,16.69C-0.72,86.16,4.23,140,40.36,176.14c17.49,17.49,39.59,28.27,62.24,30.37
			c2.68,0.25,5.33,0.37,7.94,0.37c19.52,0,37-6.86,49.86-19.72c17.66-17.66,23.22-43.53,17.49-69.2
			c-4.03-18.02-13.61-35.93-28.51-50.83C134.4,52.15,116.06,42.12,96.91,38.23z M81.01,128.33c0.69-0.69,1.62-1.02,2.61-1.02
			c1.31,0,2.74,0.59,3.87,1.71c1.98,1.98,2.29,4.88,0.69,6.47c-1.6,1.59-4.5,1.28-6.47-0.69C79.72,132.83,79.41,129.92,81.01,128.33
			z M86.55,117.95c-0.75,0.76-1.83,1.12-3.03,1c-1.25-0.12-2.47-0.72-3.44-1.69c-1.98-1.97-2.28-4.88-0.69-6.47
			c0.66-0.66,1.58-1.02,2.6-1.02c0.14,0,0.28,0.01,0.43,0.02c1.25,0.12,2.47,0.72,3.45,1.69c0.97,0.97,1.57,2.2,1.69,3.44
			C87.66,116.12,87.3,117.19,86.55,117.95z M36.86,149.82c0.03-0.29,0.06-0.59,0.1-0.88l-0.02-0.32c0.66-3.92,2.39-7.38,5.02-10.01
			c3.43-3.43,8.23-5.33,13.51-5.34c6.84-0.02,13.94,3.03,19.33,8.43c9.89,9.89,11.27,24.59,3.09,32.77
			c-2.94,2.94-6.78,4.73-11.1,5.21c-1.48,0.16-3.01,0.18-4.58,0.04c-6.21-0.57-12.28-3.53-17.09-8.34
			C39.08,165.32,36.04,157.33,36.86,149.82z M149.42,100.37c0.36,0.19,0.73,0.37,1.09,0.57c6.85,3.92,12.15,10.63,14.05,18.32
			c1.44,5.84,0.71,11.56-2.06,16.09c-0.95,1.55-2.14,2.88-3.47,4.02c-3.18,2.73-7.26,4.31-11.54,4.56
			c-5.38,0.29-10.76-1.37-15.28-4.24c-4.47-2.84-8.18-6.87-10.61-11.58c-0.99-1.93-1.77-3.96-2.29-6.07
			c-1.6-6.45-0.58-12.61,2.87-17.33C128.5,96.06,140.56,95.85,149.42,100.37z M109.68,190.03c-3.59-2.25-6.66-5.42-8.94-8.98
			c-0.25-0.39-0.49-0.79-0.72-1.19c-3.64-6.33-4.59-13.41-2.6-19.43c1.61-4.9,5.08-8.72,9.75-10.77c2.65-1.16,5.56-1.72,8.63-1.65
			c9.32,0.18,18.62,5.98,23.67,14.78c2.41,4.2,3.62,8.72,3.59,13.06c-0.01,2.2-0.32,4.35-0.99,6.38c-1.61,4.9-5.08,8.72-9.75,10.77
			c-3.49,1.53-7.39,1.96-11.15,1.46c-3.97-0.52-7.6-2.06-10.99-4.12C110.03,190.24,109.85,190.14,109.68,190.03z M105.72,137.12
			c-1.6,1.59-4.5,1.28-6.47-0.69c-1.98-1.98-2.28-4.88-0.69-6.47c0.66-0.66,1.58-1.02,2.6-1.02c0.14,0,0.28,0.01,0.43,0.02
			c1.25,0.11,2.47,0.71,3.44,1.69c0.97,0.97,1.57,2.2,1.69,3.44C106.83,135.29,106.47,136.36,105.72,137.12z M104.1,119.57
			c-0.76,0.76-1.82,1.12-3.03,1c-1.25-0.11-2.47-0.71-3.44-1.69c-0.97-0.97-1.57-2.2-1.69-3.44c-0.11-1.2,0.24-2.27,1-3.03
			c1.59-1.59,4.5-1.28,6.47,0.69C105.38,115.07,105.69,117.98,104.1,119.57z M151.36,144.07L151.36,144.07L151.36,144.07
			L151.36,144.07L151.36,144.07L151.36,144.07z"/>
	</g>
</g>
<g id="XMLID_911_">
	<g id="XMLID_1191_">
		
			<text id="XMLID_1490_" transform="matrix(1 0 0 1 1355.993 1526.2832)" style="font-family:'UniSansHeavyCAPS'; font-size:124.7179px;">filmbook</text>
		<g id="XMLID_1401_">
			<text transform="matrix(1 0 0 1 1404.1005 1573.457)" style="font-family:'BebasNeue'; font-size:38.3888px; letter-spacing:7;">VIDEO PRODUCTION company</text>
		</g>
	</g>
	<path id="XMLID_1246_" d="M1766.06,1128c-60.75-60.75-150.91-69.1-201.36-18.65c-7.37,7.37-13.46,15.62-18.34,24.47
		c-9.94,5.13-19.15,11.74-27.31,19.91c-50.75,50.75-42.35,141.42,18.75,202.53c61.11,61.11,151.78,69.5,202.53,18.75
		c8.16-8.16,14.78-17.37,19.91-27.31c8.85-4.88,17.1-10.96,24.47-18.34C1835.16,1278.91,1826.81,1188.75,1766.06,1128z
		 M1657.64,1372.17c-5.86-3.68-10.86-8.84-14.58-14.65c-0.41-0.64-0.8-1.28-1.18-1.94c-5.94-10.32-7.48-21.88-4.25-31.7
		c2.63-7.99,8.28-14.23,15.91-17.57c4.32-1.89,9.07-2.81,14.09-2.68c15.21,0.29,30.37,9.75,38.62,24.1
		c3.94,6.85,5.9,14.23,5.86,21.3c-0.02,3.59-0.52,7.1-1.61,10.4c-2.63,7.99-8.28,14.23-15.91,17.57c-5.7,2.5-12.05,3.19-18.19,2.38
		c-6.47-0.85-12.39-3.36-17.92-6.71C1658.19,1372.5,1657.91,1372.34,1657.64,1372.17z M1517.06,1199.47
		c3.34-7.63,9.58-13.28,17.57-15.91c3.22-1.06,6.64-1.56,10.13-1.6c7.15-0.09,14.64,1.86,21.57,5.85c0.04,0.02,0.07,0.05,0.11,0.07
		v56.35l23.97-16.99c-0.01,4.67-0.9,9.15-2.65,13.17c-4.65,10.63-14.8,17.19-27.15,17.55c-7.41,0.27-15.12-1.8-22.24-5.89
		c-6.33-3.64-11.88-8.79-16.09-14.91l0.01-0.15l-0.22-0.33c-0.28-0.41-0.53-0.83-0.79-1.25
		C1513.9,1223.67,1512.3,1210.34,1517.06,1199.47z M1538.84,1306.57c0.05-0.48,0.1-0.96,0.17-1.44l-0.03-0.53
		c1.07-6.4,3.9-12.04,8.2-16.34c5.6-5.6,13.42-8.69,22.04-8.71c11.16-0.04,22.73,4.95,31.54,13.75
		c16.13,16.13,18.39,40.11,5.04,53.46c-4.8,4.8-11.06,7.71-18.11,8.5c-2.41,0.27-4.91,0.3-7.47,0.06
		c-10.14-0.93-20.04-5.76-27.88-13.6C1542.46,1331.86,1537.49,1318.82,1538.84,1306.57z M1639.48,1274.16
		c1.08-1.08,2.57-1.66,4.25-1.66c0.23,0,0.46,0.01,0.7,0.03c2.03,0.19,4.03,1.17,5.62,2.76c1.59,1.59,2.57,3.58,2.75,5.62
		c0.18,1.95-0.4,3.71-1.63,4.94c-2.6,2.6-7.34,2.09-10.56-1.13C1637.38,1281.5,1636.88,1276.76,1639.48,1274.16z M1635.2,1250.48
		c-0.18-1.95,0.4-3.71,1.63-4.94c2.6-2.6,7.34-2.09,10.56,1.13c3.22,3.22,3.73,7.96,1.13,10.56c-1.23,1.23-2.98,1.82-4.94,1.63
		c-2.03-0.19-4.03-1.17-5.62-2.76C1636.37,1254.51,1635.39,1252.51,1635.2,1250.48z M1640.52,1221.75c-2.59-0.12-5.22-0.5-7.82-1.14
		c-2.99-0.74-5.95-1.84-8.84-3.26v-71.34c4.38-0.52,8.9-0.25,13.49,0.89c13.34,3.3,24.64,12.88,30.79,24.65
		c3.55,6.8,5.4,14.32,4.9,21.79C1671.87,1210.65,1658.16,1222.55,1640.52,1221.75z M1622.54,1283.2c-2.6,2.6-7.34,2.09-10.56-1.13
		c-3.22-3.22-3.73-7.96-1.13-10.56c1.12-1.12,2.63-1.66,4.25-1.66c2.14,0,4.47,0.95,6.31,2.79
		C1624.64,1275.87,1625.14,1280.6,1622.54,1283.2z M1618.77,1244.02c1.59,1.59,2.57,3.58,2.75,5.62c0.18,1.95-0.4,3.71-1.63,4.94
		c-1.23,1.23-2.98,1.82-4.94,1.63c-2.03-0.19-4.03-1.17-5.62-2.76c-3.22-3.22-3.73-7.96-1.13-10.56c1.08-1.08,2.57-1.66,4.24-1.66
		c0.23,0,0.46,0.01,0.7,0.03C1615.18,1241.45,1617.18,1242.43,1618.77,1244.02z M1738.13,1289.52c-5.18,4.45-11.85,7.03-18.82,7.43
		c-8.78,0.48-17.55-2.23-24.93-6.92c-7.29-4.63-13.35-11.21-17.31-18.89c-1.62-3.14-2.89-6.47-3.74-9.9
		c-2.6-10.53-0.94-20.57,4.69-28.27c10.3-14.1,29.98-14.45,44.43-7.07c0.6,0.3,1.2,0.6,1.77,0.93
		c11.17,6.39,19.83,17.33,22.93,29.88c2.36,9.53,1.16,18.86-3.36,26.24C1742.25,1285.49,1740.3,1287.65,1738.13,1289.52z
		 M1768.89,1254.59c-6.57-29.39-22.2-58.62-46.51-82.93c-24.43-24.43-54.35-40.78-85.6-47.13c-3.41-0.79-6.81-1.49-10.22-2.04
		l-9.64-0.92v1.17v23.61c0,0,0,0,0,0v68.17c0,0,0,0,0,0v0.08v20.86v2.33l-23.8-17.31l-1.54-1.12l-0.86,0.58l0,0.01l-17.38,11.9
		v-67.25l-0.02,0.01v-37.03v-1.2v-2.41V1122c0,0,3.07-0.86,7.8-1.85c20.77-10.35,44.26-13.53,67.76-10.86
		c-19.91-3.64-40.07-3.01-58.95,2.64c28.08-14.22,61.29-14.69,92.13-5.85c-19.75-6.75-40.58-9.56-60.69-7.37
		c42.22-9.63,92.85,5.46,130.68,43.3c38.37,38.37,53.36,89.9,42.88,132.47c1.82-14.94,0.88-30.36-2.43-45.55
		c4.15,25.89,1.44,52.1-10.1,74.85c12.04-39.15,1.96-81.5-20.16-117.5c21.01,37.49,29.59,81.36,13.87,120.41
		c10.45-45.18-6.24-91.88-35.88-128.9c25.7,34.59,40.81,77.41,33.13,118.65C1773.92,1282.73,1772.39,1268.63,1768.89,1254.59z"/>
</g>
</svg>
